Coordinates
version=1
nRows=22
nColumns=34
inDegrees=no

Units are S.I. units (second, meters, Newtons, ...)
If the header above contains a line with 'inDegrees', this indicates whether rotational values are in degrees (yes) or radians (no).

endheader
time	pelvis_tilt	pelvis_list	pelvis_rotation	pelvis_tx	pelvis_ty	pelvis_tz	hip_flexion_r	hip_adduction_r	hip_rotation_r	knee_angle_r	ankle_angle_r	subtalar_angle_r	mtp_angle_r	hip_flexion_l	hip_adduction_l	hip_rotation_l	knee_angle_l	ankle_angle_l	subtalar_angle_l	mtp_angle_l	lumbar_extension	lumbar_bending	lumbar_rotation	arm_flex_r	arm_add_r	arm_rot_r	elbow_flex_r	pro_sup_r	arm_flex_l	arm_add_l	arm_rot_l	elbow_flex_l	pro_sup_l
1.5	-0.0644325	-0.0190737	0.0030666	-0.456754	0.96836	-0.590939	0.563476	-0.177937	-0.205133	0.459731	-0.425335	-0.079112	-0.120101	0.514961	-0.163883	-0.260158	0.362426	-0.363448	0.0932145	-0.120093	-0.352193	0.00354039	-0.00246151	0.0701426	-0.50603	-0.207113	2.23199	1.51084	-0.143643	-0.464387	-0.1226	2.0855	0.593769
1.51	-0.0623369	-0.023805	0.00279055	-0.448609	0.93912	-0.590043	0.602772	-0.164071	-0.174401	0.55731	-0.287547	-0.13122	-0.120101	0.575244	-0.168108	-0.205232	0.501434	-0.18373	0.0535584	-0.120093	-0.354335	0.00599092	-0.00258395	0.0833363	-0.507182	-0.207101	2.25356	1.53298	-0.143326	-0.461802	-0.110766	2.05119	1.00991
1.52	-0.0651005	-0.0288315	0.0024646	-0.441544	0.910172	-0.58927	0.652672	-0.151841	-0.146934	0.660129	-0.163457	-0.179248	-0.120101	0.644354	-0.171123	-0.154569	0.639128	-0.0314294	0.0159765	-0.120093	-0.356356	0.00900139	-0.00253504	0.0967408	-0.508336	-0.206102	2.26822	1.55104	-0.14008	-0.45769	-0.102844	2.01734	1.31716
1.53	-0.072596	-0.0341459	0.00209379	-0.435681	0.881608	-0.588616	0.71281	-0.141318	-0.122842	0.767675	-0.0536563	-0.223029	-0.120101	0.721833	-0.172939	-0.108236	0.774991	0.0935315	-0.0194012	-0.120093	-0.358327	0.0125802	-0.0023294	0.110316	-0.509515	-0.20409	2.27592	1.56506	-0.133955	-0.452087	-0.0985076	1.9833	1.52207
1.54	-0.084308	-0.0396916	0.00170722	-0.431007	0.853927	-0.588046	0.782102	-0.132705	-0.102415	0.8785	0.0407757	-0.26211	-0.120101	0.806349	-0.173596	-0.066387	0.907604	0.192061	-0.052155	-0.120093	-0.360396	0.016753	-0.00200728	0.123951	-0.5108	-0.200973	2.27646	1.57515	-0.125136	-0.445102	-0.0970677	1.94768	1.63831
1.55	-0.0995734	-0.0454166	0.00135581	-0.427185	0.827393	-0.587637	0.858475	-0.126326	-0.0860579	0.990201	0.119178	-0.295733	-0.120101	0.895466	-0.173189	-0.0292238	1.03471	0.266762	-0.0814798	-0.120093	-0.362966	0.0214903	-0.00165072	0.137473	-0.512334	-0.196541	2.26951	1.58161	-0.114009	-0.436954	-0.0975827	1.90872	1.68443
1.56	-0.117439	-0.051239	0.00107471	-0.424087	0.802171	-0.587376	0.938976	-0.12255	-0.07412	1.09977	0.182255	-0.322915	-0.120101	0.985938	-0.171911	0.00309381	1.15373	0.322064	-0.106261	-0.120093	-0.366505	0.0267111	-0.00138247	0.150694	-0.51431	-0.190432	2.2546	1.58502	-0.101169	-0.427999	-0.0990206	1.86461	1.6807
1.57	-0.136859	-0.0570728	0.000847258	-0.421743	0.77793	-0.587205	1.02016	-0.121613	-0.0666695	1.20414	0.232306	-0.342671	-0.120101	1.07433	-0.170102	0.0305896	1.26243	0.363427	-0.12531	-0.120093	-0.371512	0.0322555	-0.00131582	0.163493	-0.516927	-0.18215	2.23121	1.58636	-0.0873432	-0.418722	-0.100409	1.81387	1.64626
1.58	-0.156728	-0.0627502	0.000558377	-0.419892	0.754721	-0.587161	1.09873	-0.123418	-0.0633498	1.30079	0.272639	-0.354313	-0.120101	1.15774	-0.1683	0.0535834	1.35952	0.396121	-0.137662	-0.120093	-0.378396	0.0379517	-0.00147175	0.175862	-0.520358	-0.171154	2.19885	1.58702	-0.0732752	-0.409669	-0.100941	1.7556	1.5971
1.59	-0.175988	-0.0681831	-4.0011e-05	-0.418346	0.73264	-0.587198	1.17203	-0.127498	-0.0633745	1.38813	0.306654	-0.357702	-0.120101	1.23427	-0.16718	0.0726745	1.44491	0.424232	-0.142847	-0.120093	-0.387408	0.0435661	-0.00172575	0.187891	-0.524719	-0.15699	2.15717	1.58869	-0.0596338	-0.401337	-0.100023	1.68962	1.54512
1.6	-0.193774	-0.0733031	-0.00131065	-0.41697	0.711755	-0.587242	1.23833	-0.133078	-0.065668	1.4656	0.337074	-0.353375	-0.120101	1.30303	-0.167472	0.0886069	1.51952	0.450289	-0.141057	-0.120093	-0.398674	0.0487977	-0.00181266	0.199719	-0.530041	-0.139403	2.10606	1.59309	-0.0469772	-0.394074	-0.0972979	1.61645	1.498
1.61	-0.209443	-0.0779805	-0.00368176	-0.415612	0.692268	-0.587206	1.29692	-0.139251	-0.0690542	1.53362	0.365592	-0.342487	-0.120101	1.36394	-0.169857	0.102069	1.58494	0.475468	-0.133089	-0.120093	-0.412203	0.0532639	-0.00141	0.21149	-0.536234	-0.118354	2.04569	1.60163	-0.0357673	-0.388034	-0.0926347	1.53726	1.4597
1.62	-0.222497	-0.0820447	-0.0075596	-0.413976	0.674538	-0.587061	1.3479	-0.145175	-0.0724297	1.59325	0.392956	-0.326582	-0.1201	1.41742	-0.174871	0.113544	1.64293	0.50012	-0.120116	-0.120093	-0.427854	0.0564735	-0.000264215	0.22333	-0.543064	-0.0939609	1.97648	1.61503	-0.026389	-0.383191	-0.086093	1.45366	1.43125
1.63	-0.232786	-0.0853036	-0.0132004	-0.411998	0.658538	-0.586791	1.3919	-0.150248	-0.074913	1.64584	0.41929	-0.307258	-0.1201	1.46407	-0.18279	0.123306	1.69514	0.524229	-0.103447	-0.120093	-0.44542	0.0579241	0.00170541	0.235328	-0.550153	-0.0664245	1.89913	1.6332	-0.0191429	-0.37938	-0.0778444	1.36744	1.41171
1.64	-0.24045	-0.0876214	-0.0206079	-0.409717	0.644017	-0.58638	1.42985	-0.154222	-0.075958	1.69278	0.444447	-0.28589	-0.1201	1.5046	-0.193503	0.131548	1.74286	0.547651	-0.0844169	-0.120093	-0.464577	0.0572394	0.00435839	0.247499	-0.557022	-0.0360005	1.81454	1.65516	-0.0141999	-0.376341	-0.0680992	1.2803	1.39909
1.65	-0.245873	-0.0888849	-0.0294989	-0.407264	0.630677	-0.585851	1.46274	-0.157222	-0.0753904	1.73525	0.468241	-0.263506	-0.1201	1.53974	-0.206427	0.13851	1.78701	0.570157	-0.0643867	-0.120093	-0.484881	0.0543393	0.00734163	0.25976	-0.563147	-0.00298131	1.72384	1.67918	-0.0115641	-0.373765	-0.0570941	1.19368	1.39104
1.66	-0.249519	-0.089093	-0.0393367	-0.404692	0.618343	-0.585246	1.49159	-0.159685	-0.073341	1.77419	0.490553	-0.240808	-0.1201	1.57026	-0.220547	0.144521	1.82812	0.591446	-0.0447029	-0.120093	-0.50577	0.0494225	0.0101241	0.271957	-0.568007	0.0323421	1.62836	1.703	-0.0110794	-0.371332	-0.0451626	1.10869	1.38547
1.67	-0.2519	-0.088351	-0.0494139	-0.401993	0.606927	-0.584629	1.51724	-0.162212	-0.0701288	1.81027	0.511373	-0.218271	-0.1201	1.59693	-0.234599	0.149958	1.86644	0.611171	-0.0265711	-0.120093	-0.526648	0.0429342	0.0120721	0.283911	-0.571124	0.0697288	1.52953	1.72428	-0.0124765	-0.36874	-0.0328415	1.02611	1.38087
1.68	-0.253496	-0.0868408	-0.0589769	-0.399162	0.596375	-0.584064	1.54041	-0.165385	-0.0661586	1.84389	0.530773	-0.196251	-0.1201	1.62046	-0.247325	0.155199	1.90206	0.629003	-0.0108977	-0.120093	-0.546923	0.0355331	0.0125785	0.295456	-0.572109	0.108987	1.42875	1.74129	-0.0154175	-0.365702	-0.0209397	0.946482	1.37644
1.69	-0.254786	-0.084816	-0.0673618	-0.396224	0.586641	-0.583619	1.56162	-0.169612	-0.0618502	1.87525	0.54886	-0.175092	-0.1201	1.64157	-0.257686	0.160592	1.935	0.644686	0.00180886	-0.120093	-0.566056	0.0280302	0.0112167	0.306438	-0.57071	0.149937	1.32733	1.75319	-0.0195265	-0.361946	-0.0105272	0.870254	1.37193
1.7	-0.25624	-0.0826264	-0.0740853	-0.393234	0.577673	-0.583335	1.58124	-0.17501	-0.057585	1.90438	0.565701	-0.155201	-0.1201	1.66094	-0.265018	0.166434	1.96521	0.658094	0.0114408	-0.120093	-0.583595	0.0212587	0.00786041	0.316715	-0.566838	0.192373	1.22639	1.75997	-0.0244167	-0.357212	-0.00284386	0.797914	1.36745
1.71	-0.258263	-0.0806645	-0.0789054	-0.390251	0.569427	-0.583223	1.59952	-0.181371	-0.0536616	1.93117	0.581277	-0.13707	-0.1201	1.67915	-0.269074	0.172929	1.99266	0.669244	0.0182089	-0.120093	-0.599179	0.0159558	0.00272309	0.326168	-0.560553	0.236032	1.12686	1.76216	-0.0297126	-0.351283	0.000867862	0.730065	1.36322
